<svg width="129" height="129" viewBox="0 0 129 129" fill="none" xmlns="http://www.w3.org/2000/svg">
<path d="M33.7617 47.0586C33.7617 64.1345 47.6044 77.9768 64.6804 77.9762C81.7563 77.9756 95.5991 64.1324 95.5991 47.0564C95.5991 29.9805 81.7563 16.1382 64.6804 16.1388C47.6044 16.1394 33.7617 29.9826 33.7617 47.0586Z" fill="url(#paint0_linear)"/>
<path fill-rule="evenodd" clip-rule="evenodd" d="M92.0191 47.0567C92.0191 31.9579 79.7791 19.7184 64.6804 19.7189C49.5817 19.7195 37.3417 31.9598 37.3417 47.0586C37.3417 62.1573 49.5817 74.3968 64.6804 74.3963C79.7791 74.3958 92.0191 62.1554 92.0191 47.0567ZM64.6804 12.5588C83.7336 12.5582 99.1792 28.0033 99.1792 47.0564C99.1792 66.1096 83.7336 81.5557 64.6804 81.5564C45.6272 81.5571 30.1816 66.112 30.1816 47.0588C30.1816 28.0057 45.6272 12.5595 64.6804 12.5588Z" fill="#1D0F00"/>
<path d="M25.1816 72.0603C25.1816 93.3233 42.4187 110.56 63.6816 110.559C84.9446 110.558 102.182 93.3206 102.182 72.0576C102.182 50.7947 84.9446 33.5582 63.6816 33.559C42.4187 33.5597 25.1816 50.7973 25.1816 72.0603Z" fill="url(#paint1_linear)"/>
<mask id="mask0" mask-type="alpha" maskUnits="userSpaceOnUse" x="25" y="33" width="78" height="78">
<path d="M25.4062 72.0603C25.4062 93.3233 42.6433 110.56 63.9062 110.559C85.1692 110.558 102.406 93.3206 102.406 72.0576C102.406 50.7947 85.1692 33.5582 63.9062 33.559C42.6433 33.5597 25.4062 50.7973 25.4062 72.0603Z" fill="url(#paint2_linear)"/>
</mask>
<g mask="url(#mask0)">
<path d="M87.9023 31.3036C65.4263 18.3271 36.6864 26.0279 23.7098 48.5039C10.7333 70.9799 18.4342 99.7199 40.9102 112.696C63.3862 125.673 92.1261 117.972 105.103 95.4961C118.079 73.0201 110.378 44.2801 87.9023 31.3036ZM99.9525 51.6598C107.568 65.0179 106.746 80.8708 99.2642 93.1526L74.4122 76.9774C76.0343 73.777 76.1029 69.8562 74.2608 66.5079L99.9525 51.6598ZM64.7586 30.0969L64.7603 60.7203C62.6963 60.6593 60.6562 61.1752 58.8692 62.2099C57.3364 63.0929 56.0369 64.3296 55.0792 65.8169L28.6623 52.392C32.1339 45.9981 37.2576 40.3742 44.0197 36.4689C49.8686 33.0916 58.0085 30.2873 64.7597 30.0975L64.7586 30.0969ZM68.1544 65.5333C69.2651 66.1808 70.1865 67.1084 70.8264 68.2235C72.8724 71.7392 71.6623 76.2487 68.1311 78.2678C64.6183 80.3145 60.1107 79.1058 58.0933 75.5762C56.0455 72.062 57.2525 67.5524 60.7819 65.531C63.0606 64.2045 65.8765 64.2054 68.1544 65.5333ZM64.7128 83.0806L64.6979 112.754C57.6212 112.52 49.1132 110.375 43.0563 106.666C37.502 103.264 32.7465 98.5257 29.2318 92.5157L54.9084 77.7167C57.0435 81.224 60.8433 83.1588 64.7128 83.0806Z" fill="black" fill-opacity="0.555556"/>
</g>
<path d="M23.3965 103.055C23.3965 109.838 28.8965 115.338 35.6811 115.339C42.4658 115.341 47.9658 109.843 47.9658 103.06C47.9658 96.2763 42.4658 90.7762 35.6811 90.7749C28.8965 90.7735 23.3965 96.2714 23.3965 103.055Z" fill="url(#paint3_linear)"/>
<path fill-rule="evenodd" clip-rule="evenodd" d="M35.6817 88.5605C43.6898 88.5622 50.1816 95.054 50.1816 103.061C50.1816 111.067 43.6898 117.556 35.6817 117.555C27.6736 117.553 21.1818 111.061 21.1818 103.055C21.1818 95.0481 27.6736 88.5589 35.6817 88.5605ZM45.7511 103.06C45.7511 97.4995 41.2429 92.9913 35.6817 92.9902C30.1205 92.989 25.6123 97.4954 25.6123 103.056C25.6123 108.616 30.1205 113.124 35.6817 113.125C41.2429 113.126 45.7511 108.62 45.7511 103.06Z" fill="black"/>
<path d="M80.3965 103.055C80.3965 109.838 85.8965 115.338 92.6811 115.339C99.4658 115.341 104.966 109.843 104.966 103.06C104.966 96.2763 99.4658 90.7762 92.6811 90.7749C85.8965 90.7735 80.3965 96.2714 80.3965 103.055Z" fill="url(#paint4_linear)"/>
<path fill-rule="evenodd" clip-rule="evenodd" d="M92.6817 88.5605C100.69 88.5622 107.182 95.054 107.182 103.061C107.182 111.067 100.69 117.556 92.6817 117.555C84.6736 117.553 78.1818 111.061 78.1818 103.055C78.1818 95.0481 84.6736 88.5589 92.6817 88.5605ZM102.751 103.06C102.751 97.4995 98.2429 92.9913 92.6817 92.9902C87.1205 92.989 82.6123 97.4954 82.6123 103.056C82.6123 108.616 87.1205 113.124 92.6817 113.125C98.2429 113.126 102.751 108.62 102.751 103.06Z" fill="black"/>
<defs>
<linearGradient id="paint0_linear" x1="95.5991" y1="47.0564" x2="33.7617" y2="47.0564" gradientUnits="userSpaceOnUse">
<stop stop-color="#0A253A"/>
<stop offset="1" stop-color="#134870"/>
</linearGradient>
<linearGradient id="paint1_linear" x1="95.2835" y1="91.0589" x2="32.7584" y2="54.004" gradientUnits="userSpaceOnUse">
<stop stop-color="#2A78B3"/>
<stop offset="1" stop-color="#184669"/>
</linearGradient>
<linearGradient id="paint2_linear" x1="102.406" y1="72.0576" x2="25.4062" y2="72.0576" gradientUnits="userSpaceOnUse">
<stop stop-color="#2A78B3"/>
<stop offset="1" stop-color="#184669"/>
</linearGradient>
<linearGradient id="paint3_linear" x1="41.7655" y1="113.115" x2="28.0709" y2="93.7531" gradientUnits="userSpaceOnUse">
<stop stop-color="#4F6B80"/>
<stop offset="1" stop-color="#85B4D8"/>
</linearGradient>
<linearGradient id="paint4_linear" x1="98.7655" y1="113.115" x2="85.0709" y2="93.7531" gradientUnits="userSpaceOnUse">
<stop stop-color="#4F6B80"/>
<stop offset="1" stop-color="#85B4D8"/>
</linearGradient>
</defs>
</svg>
