<svg width="129" height="129" viewBox="0 0 129 129" fill="none" xmlns="http://www.w3.org/2000/svg">
<path d="M33.7617 47.0586C33.7617 64.1345 47.6044 77.9768 64.6804 77.9762C81.7563 77.9756 95.5991 64.1324 95.5991 47.0564C95.5991 29.9805 81.7563 16.1382 64.6804 16.1388C47.6044 16.1394 33.7617 29.9826 33.7617 47.0586Z" fill="url(#paint0_linear)"/>
<path fill-rule="evenodd" clip-rule="evenodd" d="M92.0191 47.0567C92.0191 31.9579 79.7791 19.7184 64.6804 19.7189C49.5817 19.7195 37.3417 31.9598 37.3417 47.0586C37.3417 62.1573 49.5817 74.3968 64.6804 74.3963C79.7791 74.3958 92.0191 62.1554 92.0191 47.0567ZM64.6804 12.5588C83.7336 12.5582 99.1792 28.0033 99.1792 47.0564C99.1792 66.1096 83.7336 81.5557 64.6804 81.5564C45.6272 81.5571 30.1816 66.112 30.1816 47.0588C30.1816 28.0057 45.6272 12.5595 64.6804 12.5588Z" fill="#1D0F00"/>
<path d="M25.1816 72.0603C25.1816 93.3233 42.4187 110.56 63.6816 110.559C84.9446 110.558 102.182 93.3206 102.182 72.0576C102.182 50.7947 84.9446 33.5582 63.6816 33.559C42.4187 33.5597 25.1816 50.7973 25.1816 72.0603Z" fill="url(#paint1_linear)"/>
<mask id="mask0" mask-type="alpha" maskUnits="userSpaceOnUse" x="25" y="33" width="78" height="78">
<path d="M25.4062 72.0603C25.4062 93.3233 42.6433 110.56 63.9062 110.559C85.1692 110.558 102.406 93.3206 102.406 72.0576C102.406 50.7947 85.1692 33.5582 63.9062 33.559C42.6433 33.5597 25.4062 50.7973 25.4062 72.0603Z" fill="url(#paint2_linear)"/>
</mask>
<g mask="url(#mask0)">
<rect x="-44.0439" y="72.832" width="152.647" height="8.9137" transform="rotate(-45 -44.0439 72.832)" fill="black" fill-opacity="0.5"/>
<rect x="-31.438" y="85.4385" width="152.647" height="8.9137" transform="rotate(-45 -31.438 85.4385)" fill="black" fill-opacity="0.5"/>
<rect x="-6.22607" y="110.649" width="152.647" height="8.9137" transform="rotate(-45 -6.22607 110.649)" fill="black" fill-opacity="0.5"/>
<rect x="18.9854" y="135.861" width="152.647" height="8.9137" transform="rotate(-45 18.9854 135.861)" fill="black" fill-opacity="0.5"/>
<rect x="44.1973" y="161.073" width="152.647" height="8.9137" transform="rotate(-45 44.1973 161.073)" fill="black" fill-opacity="0.5"/>
<rect x="-18.832" y="98.0439" width="152.647" height="8.9137" transform="rotate(-45 -18.832 98.0439)" fill="black" fill-opacity="0.5"/>
<rect x="6.37939" y="123.255" width="152.647" height="8.9137" transform="rotate(-45 6.37939 123.255)" fill="black" fill-opacity="0.5"/>
<rect x="31.5913" y="148.467" width="152.647" height="8.9137" transform="rotate(-45 31.5913 148.467)" fill="black" fill-opacity="0.5"/>
<rect x="56.8032" y="173.68" width="152.647" height="8.9137" transform="rotate(-45 56.8032 173.68)" fill="black" fill-opacity="0.5"/>
<rect x="63.106" y="-35.1055" width="152.647" height="8.9137" transform="rotate(45 63.106 -35.1055)" fill="black" fill-opacity="0.5"/>
<rect x="50.5005" y="-22.5" width="152.647" height="8.9137" transform="rotate(45 50.5005 -22.5)" fill="black" fill-opacity="0.5"/>
<rect x="25.2886" y="2.71191" width="152.647" height="8.9137" transform="rotate(45 25.2886 2.71191)" fill="black" fill-opacity="0.5"/>
<rect x="0.0766602" y="27.9229" width="152.647" height="8.9137" transform="rotate(45 0.0766602 27.9229)" fill="black" fill-opacity="0.5"/>
<rect x="-25.1348" y="53.1357" width="152.647" height="8.9137" transform="rotate(45 -25.1348 53.1357)" fill="black" fill-opacity="0.5"/>
<rect x="37.8945" y="-9.89453" width="152.647" height="8.9137" transform="rotate(45 37.8945 -9.89453)" fill="black" fill-opacity="0.5"/>
<rect x="12.6826" y="15.3174" width="152.647" height="8.9137" transform="rotate(45 12.6826 15.3174)" fill="black" fill-opacity="0.5"/>
<rect x="-12.5288" y="40.5293" width="152.647" height="8.9137" transform="rotate(45 -12.5288 40.5293)" fill="black" fill-opacity="0.5"/>
<rect x="-37.7412" y="65.7412" width="152.647" height="8.9137" transform="rotate(45 -37.7412 65.7412)" fill="black" fill-opacity="0.5"/>
<rect x="19.353" y="34.6465" width="8.9137" height="8.9137" transform="rotate(-45 19.353 34.6465)" fill="black"/>
<rect x="44.5649" y="34.6465" width="8.9137" height="8.9137" transform="rotate(-45 44.5649 34.6465)" fill="black"/>
<rect x="31.959" y="47.252" width="8.9137" height="8.9137" transform="rotate(-45 31.959 47.252)" fill="black"/>
<rect x="19.353" y="59.8574" width="8.9137" height="8.9137" transform="rotate(-45 19.353 59.8574)" fill="black"/>
<rect x="69.7764" y="34.6465" width="8.9137" height="8.9137" transform="rotate(-45 69.7764 34.6465)" fill="black"/>
<rect x="57.1709" y="47.252" width="8.9137" height="8.9137" transform="rotate(-45 57.1709 47.252)" fill="black"/>
<rect x="44.5649" y="59.8574" width="8.9137" height="8.9137" transform="rotate(-45 44.5649 59.8574)" fill="black"/>
<rect x="31.959" y="72.4639" width="8.9137" height="8.9137" transform="rotate(-45 31.959 72.4639)" fill="black"/>
<rect x="19.353" y="85.0693" width="8.9137" height="8.9137" transform="rotate(-45 19.353 85.0693)" fill="black"/>
<rect x="94.9883" y="34.6465" width="8.9137" height="8.9137" transform="rotate(-45 94.9883 34.6465)" fill="black"/>
<rect x="82.3823" y="47.252" width="8.9137" height="8.9137" transform="rotate(-45 82.3823 47.252)" fill="black"/>
<rect x="69.7764" y="59.8574" width="8.9137" height="8.9137" transform="rotate(-45 69.7764 59.8574)" fill="black"/>
<rect x="57.1709" y="72.4639" width="8.9137" height="8.9137" transform="rotate(-45 57.1709 72.4639)" fill="black"/>
<rect x="44.5649" y="85.0693" width="8.9137" height="8.9137" transform="rotate(-45 44.5649 85.0693)" fill="black"/>
<rect x="31.959" y="97.6748" width="8.9137" height="8.9137" transform="rotate(-45 31.959 97.6748)" fill="black"/>
<rect x="19.353" y="110.281" width="8.9137" height="8.9137" transform="rotate(-45 19.353 110.281)" fill="black"/>
<rect x="94.9883" y="59.8574" width="8.9137" height="8.9137" transform="rotate(-45 94.9883 59.8574)" fill="black"/>
<rect x="82.3823" y="72.4639" width="8.9137" height="8.9137" transform="rotate(-45 82.3823 72.4639)" fill="black"/>
<rect x="69.7764" y="85.0693" width="8.9137" height="8.9137" transform="rotate(-45 69.7764 85.0693)" fill="black"/>
<rect x="57.1709" y="97.6748" width="8.9137" height="8.9137" transform="rotate(-45 57.1709 97.6748)" fill="black"/>
<rect x="44.5649" y="110.281" width="8.9137" height="8.9137" transform="rotate(-45 44.5649 110.281)" fill="black"/>
<rect x="94.9883" y="85.0693" width="8.9137" height="8.9137" transform="rotate(-45 94.9883 85.0693)" fill="black"/>
<rect x="82.3823" y="97.6748" width="8.9137" height="8.9137" transform="rotate(-45 82.3823 97.6748)" fill="black"/>
<rect x="69.7764" y="110.281" width="8.9137" height="8.9137" transform="rotate(-45 69.7764 110.281)" fill="black"/>
<rect x="94.9883" y="110.281" width="8.9137" height="8.9137" transform="rotate(-45 94.9883 110.281)" fill="black"/>
</g>
<path d="M23.3965 103.055C23.3965 109.838 28.8965 115.338 35.6811 115.339C42.4658 115.341 47.9658 109.843 47.9658 103.06C47.9658 96.2763 42.4658 90.7762 35.6811 90.7749C28.8965 90.7735 23.3965 96.2714 23.3965 103.055Z" fill="url(#paint3_linear)"/>
<path fill-rule="evenodd" clip-rule="evenodd" d="M35.6817 88.5605C43.6898 88.5622 50.1816 95.054 50.1816 103.061C50.1816 111.067 43.6898 117.556 35.6817 117.555C27.6736 117.553 21.1818 111.061 21.1818 103.055C21.1818 95.0481 27.6736 88.5589 35.6817 88.5605ZM45.7511 103.06C45.7511 97.4995 41.2429 92.9913 35.6817 92.9902C30.1205 92.989 25.6123 97.4954 25.6123 103.056C25.6123 108.616 30.1205 113.124 35.6817 113.125C41.2429 113.126 45.7511 108.62 45.7511 103.06Z" fill="black"/>
<path d="M80.3965 103.055C80.3965 109.838 85.8965 115.338 92.6811 115.339C99.4658 115.341 104.966 109.843 104.966 103.06C104.966 96.2763 99.4658 90.7762 92.6811 90.7749C85.8965 90.7735 80.3965 96.2714 80.3965 103.055Z" fill="url(#paint4_linear)"/>
<path fill-rule="evenodd" clip-rule="evenodd" d="M92.6817 88.5605C100.69 88.5622 107.182 95.054 107.182 103.061C107.182 111.067 100.69 117.556 92.6817 117.555C84.6736 117.553 78.1818 111.061 78.1818 103.055C78.1818 95.0481 84.6736 88.5589 92.6817 88.5605ZM102.751 103.06C102.751 97.4995 98.2429 92.9913 92.6817 92.9902C87.1205 92.989 82.6123 97.4954 82.6123 103.056C82.6123 108.616 87.1205 113.124 92.6817 113.125C98.2429 113.126 102.751 108.62 102.751 103.06Z" fill="black"/>
<defs>
<linearGradient id="paint0_linear" x1="95.5991" y1="47.0564" x2="33.7617" y2="47.0564" gradientUnits="userSpaceOnUse">
<stop stop-color="#200808"/>
<stop offset="1" stop-color="#401010"/>
</linearGradient>
<linearGradient id="paint1_linear" x1="102.182" y1="72.0576" x2="25.1816" y2="72.0576" gradientUnits="userSpaceOnUse">
<stop stop-color="#540001"/>
<stop offset="1" stop-color="#8D0002"/>
</linearGradient>
<linearGradient id="paint2_linear" x1="102.406" y1="72.0576" x2="25.4062" y2="72.0576" gradientUnits="userSpaceOnUse">
<stop stop-color="#2A78B3"/>
<stop offset="1" stop-color="#184669"/>
</linearGradient>
<linearGradient id="paint3_linear" x1="41.7655" y1="113.115" x2="28.0709" y2="93.7531" gradientUnits="userSpaceOnUse">
<stop stop-color="#440204"/>
<stop offset="1" stop-color="#760307"/>
</linearGradient>
<linearGradient id="paint4_linear" x1="98.7655" y1="113.115" x2="85.0709" y2="93.7531" gradientUnits="userSpaceOnUse">
<stop stop-color="#440204"/>
<stop offset="1" stop-color="#760307"/>
</linearGradient>
</defs>
</svg>
