<?xml version="1.0" encoding="UTF-8" standalone="no"?>
<svg
   xmlns:dc="http://purl.org/dc/elements/1.1/"
   xmlns:cc="http://creativecommons.org/ns#"
   xmlns:rdf="http://www.w3.org/1999/02/22-rdf-syntax-ns#"
   xmlns:svg="http://www.w3.org/2000/svg"
   xmlns="http://www.w3.org/2000/svg"
   xmlns:sodipodi="http://sodipodi.sourceforge.net/DTD/sodipodi-0.dtd"
   xmlns:inkscape="http://www.inkscape.org/namespaces/inkscape"
   viewBox="0 0 512 512"
   style="height: 128px; width: 128px;"
   width="128"
   height="128"
   version="1.1"
   id="svg8"
   sodipodi:docname="loot-weapon-ak.svg"
   inkscape:version="0.92.1 r15371">
  <metadata
     id="metadata14">
    <rdf:RDF>
      <cc:Work
         rdf:about="">
        <dc:format>image/svg+xml</dc:format>
        <dc:type
           rdf:resource="http://purl.org/dc/dcmitype/StillImage" />
      </cc:Work>
    </rdf:RDF>
  </metadata>
  <defs
     id="defs12" />
  <sodipodi:namedview
     pagecolor="#ffffff"
     bordercolor="#666666"
     borderopacity="1"
     objecttolerance="10"
     gridtolerance="10"
     guidetolerance="10"
     inkscape:pageopacity="0"
     inkscape:pageshadow="2"
     inkscape:window-width="1920"
     inkscape:window-height="1018"
     id="namedview10"
     showgrid="false"
     inkscape:zoom="3.6875"
     inkscape:cx="15.49712"
     inkscape:cy="87.88725"
     inkscape:window-x="1912"
     inkscape:window-y="-8"
     inkscape:window-maximized="1"
     inkscape:current-layer="svg8" />
  <path
     d="M0 0h512v512H0z"
     fill="#000000"
     opacity="0"
     id="path2" />
  <g
     class=""
     transform="translate(0,0)"
     style="touch-action:none;stroke:#323232;stroke-opacity:1;stroke-width:12;stroke-miterlimit:4;stroke-dasharray:none"
     id="g6">
    <path
       fill="#fff"
       d="M293.558 241.704l-30.06 30.06a167.363 167.363 0 0 0 123.006 23.162l-8.044-40.39a126.157 126.157 0 0 1-84.902-12.832zm-139.303 75.694a3.761 3.761 0 0 0 1.13 2.792l18.666 18.666a4.783 4.783 0 0 0 5.07 1.197c4.703-1.845 8.975 3.075 10.728 11.51l6.375 30.459a9.555 9.555 0 0 0 11.31 7.404l4.23-.905a15.385 15.385 0 0 0 11.918-18.217l-6.757-32.287a10.26 10.26 0 0 1 2.743-9.391l27.217-27.218a12.376 12.376 0 0 0 0-17.502l-11.061-11.062 50.894-50.894-32.278-32.279-33.151 33.152 3.964 3.964-70.64 70.64s-.117 14.91-.358 19.97zm57.834-2.003a9.673 9.673 0 0 1 0-13.68l10.712-10.712a9.673 9.673 0 0 1 13.68 0l1.603 1.604a9.673 9.673 0 0 1 0 13.68l-10.745 10.745a9.673 9.673 0 0 1-13.646-.033l-1.604-1.604zm-100.56 161.21a9.908 9.908 0 0 1-1.952 2.784l-5.145 5.145a5.007 5.007 0 0 1-7.08 0l-42.717-42.717a7.91 7.91 0 0 1-.258-10.912l63.37-69.702.365-.365a10.907 10.907 0 0 1 4.504-2.71l3.59-1.113a11.095 11.095 0 0 0 5.926-4.397l11.71-17.377 23.353 23.353zM384.012 93.991a4.701 4.701 0 0 0-6.648 0l-15.707 15.707-4.38-4.38 20.926-20.926 8.85 2.468a15.126 15.126 0 0 0 14.769-3.914l26.345-26.345-9.109-20.012a6.793 6.793 0 0 1 1.38-7.612l.764-.765c2.718-2.718 7.455-3.05 10.173-.332l15.316 15.316 6.582-6.582 6.408 6.408-6.59 6.59 2.991 2.992-75.76 75.76-12.017-12.017 15.707-15.708a4.701 4.701 0 0 0 0-6.648zm-40.207 24.45l18.575 18.574a7.193 7.193 0 0 1 .423 9.715l-51.875 61.748a7.193 7.193 0 0 1-10.596.458l-23.527-23.528a7.193 7.193 0 0 1 0-10.172l56.811-56.812a7.193 7.193 0 0 1 10.173 0z"
       id="path4"
       style="stroke:#323232;stroke-opacity:1;stroke-width:12;stroke-miterlimit:4;stroke-dasharray:none" />
  </g>
  <!-- react-empty: 6 -->
</svg>
